<svg width="15" height="8" viewBox="0 0 15 8" fill="none" xmlns="http://www.w3.org/2000/svg">
<path d="M1.22905 0.277136C1.41381 0.0923787 1.63256 0 1.88531 0C2.13756 0 2.35607 0.0923787 2.54083 0.277136L7.95422 5.69053L13.3861 0.25866C13.5585 0.0862201 13.7741 0 14.0327 0C14.2914 0 14.5131 0.0923787 14.6979 0.277136C14.8826 0.461894 14.975 0.680647 14.975 0.933395C14.975 1.18565 14.8826 1.40416 14.6979 1.58891L8.47154 7.79677C8.39764 7.87067 8.31758 7.92314 8.23136 7.95418C8.14514 7.98473 8.05276 8 7.95422 8C7.85568 8 7.76331 7.98473 7.67708 7.95418C7.59086 7.92314 7.5108 7.87067 7.4369 7.79677L1.21057 1.57044C1.03813 1.398 0.951912 1.18565 0.951912 0.933395C0.951912 0.680647 1.04429 0.461894 1.22905 0.277136Z" fill="black"/>
</svg>
