<svg width="147" height="70" viewBox="0 0 147 70" fill="none" xmlns="http://www.w3.org/2000/svg">
<path d="M37.7 42.3C37.8833 42.1167 37.9793 41.8833 37.988 41.6C37.996 41.3167 37.9083 41.0833 37.725 40.9L32.825 36H44C44.2833 36 44.521 35.904 44.713 35.712C44.9043 35.5207 45 35.2833 45 35C45 34.7167 44.9043 34.479 44.713 34.287C44.521 34.0957 44.2833 34 44 34H32.825L37.725 29.1C37.9083 28.9167 37.996 28.6833 37.988 28.4C37.9793 28.1167 37.8833 27.8833 37.7 27.7C37.5167 27.5167 37.2833 27.425 37 27.425C36.7167 27.425 36.4833 27.5167 36.3 27.7L29.7 34.3C29.6 34.3833 29.529 34.4873 29.487 34.612C29.4457 34.7373 29.425 34.8667 29.425 35C29.425 35.1333 29.4457 35.2583 29.487 35.375C29.529 35.4917 29.6 35.6 29.7 35.7L36.3 42.3C36.4833 42.4833 36.7167 42.575 37 42.575C37.2833 42.575 37.5167 42.4833 37.7 42.3Z" fill="#3C3C3C"/>
<path d="M57.1136 43.5V26.0455H59.2273V33.8182H68.5341V26.0455H70.6477V43.5H68.5341V35.6932H59.2273V43.5H57.1136ZM79.9247 43.7727C78.7429 43.7727 77.706 43.4915 76.8139 42.929C75.9276 42.3665 75.2344 41.5795 74.7344 40.5682C74.2401 39.5568 73.9929 38.375 73.9929 37.0227C73.9929 35.6591 74.2401 34.4687 74.7344 33.4517C75.2344 32.4347 75.9276 31.6449 76.8139 31.0824C77.706 30.5199 78.7429 30.2386 79.9247 30.2386C81.1065 30.2386 82.1406 30.5199 83.027 31.0824C83.919 31.6449 84.6122 32.4347 85.1065 33.4517C85.6065 34.4687 85.8565 35.6591 85.8565 37.0227C85.8565 38.375 85.6065 39.5568 85.1065 40.5682C84.6122 41.5795 83.919 42.3665 83.027 42.929C82.1406 43.4915 81.1065 43.7727 79.9247 43.7727ZM79.9247 41.9659C80.8224 41.9659 81.5611 41.7358 82.1406 41.2756C82.7202 40.8153 83.1491 40.2102 83.4276 39.4602C83.706 38.7102 83.8452 37.8977 83.8452 37.0227C83.8452 36.1477 83.706 35.3324 83.4276 34.5767C83.1491 33.821 82.7202 33.2102 82.1406 32.7443C81.5611 32.2784 80.8224 32.0455 79.9247 32.0455C79.027 32.0455 78.2884 32.2784 77.7088 32.7443C77.1293 33.2102 76.7003 33.821 76.4219 34.5767C76.1435 35.3324 76.0043 36.1477 76.0043 37.0227C76.0043 37.8977 76.1435 38.7102 76.4219 39.4602C76.7003 40.2102 77.1293 40.8153 77.7088 41.2756C78.2884 41.7358 79.027 41.9659 79.9247 41.9659ZM88.9268 43.5V30.4091H90.87V32.4545H91.0405C91.3132 31.7557 91.7536 31.2131 92.3615 30.8267C92.9695 30.4347 93.6996 30.2386 94.5518 30.2386C95.4155 30.2386 96.1342 30.4347 96.7081 30.8267C97.2876 31.2131 97.7393 31.7557 98.0632 32.4545H98.1996C98.5348 31.7784 99.0376 31.2415 99.7081 30.8438C100.379 30.4403 101.183 30.2386 102.12 30.2386C103.29 30.2386 104.248 30.6051 104.992 31.3381C105.737 32.0653 106.109 33.1989 106.109 34.7386V43.5H104.097V34.7386C104.097 33.7727 103.833 33.0824 103.305 32.6676C102.776 32.2528 102.154 32.0455 101.438 32.0455C100.518 32.0455 99.8047 32.3239 99.299 32.8807C98.7933 33.4318 98.5405 34.1307 98.5405 34.9773V43.5H96.495V34.5341C96.495 33.7898 96.2536 33.1903 95.7706 32.7358C95.2876 32.2756 94.6655 32.0455 93.9041 32.0455C93.3814 32.0455 92.8928 32.1847 92.4382 32.4631C91.9893 32.7415 91.6257 33.1278 91.3473 33.6222C91.0746 34.1108 90.9382 34.6761 90.9382 35.3182V43.5H88.9268ZM115.275 43.7727C114.013 43.7727 112.925 43.4943 112.011 42.9375C111.102 42.375 110.4 41.5909 109.906 40.5852C109.417 39.5739 109.173 38.3977 109.173 37.0568C109.173 35.7159 109.417 34.5341 109.906 33.5114C110.4 32.483 111.087 31.6818 111.968 31.108C112.854 30.5284 113.888 30.2386 115.07 30.2386C115.752 30.2386 116.425 30.3523 117.09 30.5795C117.755 30.8068 118.36 31.1761 118.906 31.6875C119.451 32.1932 119.886 32.8636 120.21 33.6989C120.533 34.5341 120.695 35.5625 120.695 36.7841V37.6364H110.604V35.8977H118.65C118.65 35.1591 118.502 34.5 118.207 33.9205C117.917 33.3409 117.502 32.8835 116.962 32.5483C116.428 32.2131 115.798 32.0455 115.07 32.0455C114.269 32.0455 113.576 32.2443 112.991 32.642C112.411 33.0341 111.965 33.5455 111.653 34.1761C111.34 34.8068 111.184 35.483 111.184 36.2045V37.3636C111.184 38.3523 111.354 39.1903 111.695 39.8778C112.042 40.5597 112.522 41.0795 113.136 41.4375C113.749 41.7898 114.462 41.9659 115.275 41.9659C115.803 41.9659 116.281 41.892 116.707 41.7443C117.138 41.5909 117.511 41.3636 117.823 41.0625C118.136 40.7557 118.377 40.375 118.548 39.9205L120.491 40.4659C120.286 41.125 119.942 41.7045 119.46 42.2045C118.977 42.6989 118.38 43.0852 117.67 43.3636C116.96 43.6364 116.161 43.7727 115.275 43.7727Z" fill="#3C3C3C"/>
<rect x="0.5" y="0.5" width="146" height="69" rx="34.5" stroke="#3C3C3C"/>
</svg>
