<svg width="70" height="70" viewBox="0 0 70 70" fill="none" xmlns="http://www.w3.org/2000/svg">
<path d="M41.031 39.617L45.314 43.899L43.899 45.314L39.617 41.031C38.0237 42.3082 36.042 43.0029 34 43C29.032 43 25 38.968 25 34C25 29.032 29.032 25 34 25C38.968 25 43 29.032 43 34C43.0029 36.042 42.3082 38.0237 41.031 39.617ZM39.025 38.875C40.2941 37.5699 41.0029 35.8204 41 34C41 30.132 37.867 27 34 27C30.132 27 27 30.132 27 34C27 37.867 30.132 41 34 41C35.8204 41.0029 37.5699 40.2941 38.875 39.025L39.025 38.875Z" fill="#3C3C3C"/>
<rect x="0.5" y="0.5" width="69" height="69" rx="34.5" stroke="#3C3C3C"/>
</svg>
