<svg width="260" height="70" viewBox="0 0 260 70" fill="none" xmlns="http://www.w3.org/2000/svg">
<path d="M36.6591 30.4091C36.5568 29.5455 36.142 28.875 35.4148 28.3977C34.6875 27.9205 33.7955 27.6818 32.7386 27.6818C31.9659 27.6818 31.2898 27.8068 30.7102 28.0568C30.1364 28.3068 29.6875 28.6506 29.3636 29.0881C29.0455 29.5256 28.8864 30.0227 28.8864 30.5795C28.8864 31.0455 28.9972 31.446 29.2188 31.7812C29.446 32.1108 29.7358 32.3864 30.0881 32.608C30.4403 32.8239 30.8097 33.0028 31.196 33.1449C31.5824 33.2812 31.9375 33.392 32.2614 33.4773L34.0341 33.9545C34.4886 34.0739 34.9943 34.2386 35.5511 34.4489C36.1136 34.6591 36.6506 34.946 37.1619 35.3097C37.679 35.6676 38.1051 36.1278 38.4403 36.6903C38.7756 37.2528 38.9432 37.9432 38.9432 38.7614C38.9432 39.7045 38.696 40.5568 38.2017 41.3182C37.7131 42.0795 36.9972 42.6847 36.054 43.1335C35.1165 43.5824 33.9773 43.8068 32.6364 43.8068C31.3864 43.8068 30.304 43.6051 29.3892 43.2017C28.4801 42.7983 27.7642 42.2358 27.2415 41.5142C26.7244 40.7926 26.4318 39.9545 26.3636 39H28.5455C28.6023 39.6591 28.8239 40.2045 29.2102 40.6364C29.6023 41.0625 30.0966 41.3807 30.6932 41.5909C31.2955 41.7955 31.9432 41.8977 32.6364 41.8977C33.4432 41.8977 34.1676 41.767 34.8097 41.5057C35.4517 41.2386 35.9602 40.8693 36.3352 40.3977C36.7102 39.9205 36.8977 39.3636 36.8977 38.7273C36.8977 38.1477 36.7358 37.6761 36.4119 37.3125C36.0881 36.9489 35.6619 36.6534 35.1335 36.4261C34.6051 36.1989 34.0341 36 33.4205 35.8295L31.2727 35.2159C29.9091 34.8239 28.8295 34.2642 28.0341 33.5369C27.2386 32.8097 26.8409 31.858 26.8409 30.6818C26.8409 29.7045 27.1051 28.8523 27.6335 28.125C28.1676 27.392 28.8835 26.8239 29.7812 26.4205C30.6847 26.0114 31.6932 25.8068 32.8068 25.8068C33.9318 25.8068 34.9318 26.0085 35.8068 26.4119C36.6818 26.8097 37.375 27.3551 37.8864 28.0483C38.4034 28.7415 38.6761 29.5284 38.7045 30.4091H36.6591ZM44.157 35.625V43.5H42.1456V26.0455H44.157V32.4545H44.3274C44.6342 31.7784 45.0945 31.2415 45.7081 30.8438C46.3274 30.4403 47.1513 30.2386 48.1797 30.2386C49.0717 30.2386 49.853 30.4176 50.5234 30.7756C51.1939 31.1278 51.7138 31.6705 52.0831 32.4034C52.4581 33.1307 52.6456 34.0568 52.6456 35.1818V43.5H50.6342V35.3182C50.6342 34.2784 50.3643 33.4744 49.8246 32.9062C49.2905 32.3324 48.549 32.0455 47.6001 32.0455C46.9411 32.0455 46.3501 32.1847 45.8274 32.4631C45.3104 32.7415 44.9013 33.1477 44.6001 33.6818C44.3047 34.2159 44.157 34.8636 44.157 35.625ZM61.6435 43.7727C60.4616 43.7727 59.4247 43.4915 58.5327 42.929C57.6463 42.3665 56.9531 41.5795 56.4531 40.5682C55.9588 39.5568 55.7116 38.375 55.7116 37.0227C55.7116 35.6591 55.9588 34.4687 56.4531 33.4517C56.9531 32.4347 57.6463 31.6449 58.5327 31.0824C59.4247 30.5199 60.4616 30.2386 61.6435 30.2386C62.8253 30.2386 63.8594 30.5199 64.7457 31.0824C65.6378 31.6449 66.331 32.4347 66.8253 33.4517C67.3253 34.4687 67.5753 35.6591 67.5753 37.0227C67.5753 38.375 67.3253 39.5568 66.8253 40.5682C66.331 41.5795 65.6378 42.3665 64.7457 42.929C63.8594 43.4915 62.8253 43.7727 61.6435 43.7727ZM61.6435 41.9659C62.5412 41.9659 63.2798 41.7358 63.8594 41.2756C64.4389 40.8153 64.8679 40.2102 65.1463 39.4602C65.4247 38.7102 65.5639 37.8977 65.5639 37.0227C65.5639 36.1477 65.4247 35.3324 65.1463 34.5767C64.8679 33.821 64.4389 33.2102 63.8594 32.7443C63.2798 32.2784 62.5412 32.0455 61.6435 32.0455C60.7457 32.0455 60.0071 32.2784 59.4276 32.7443C58.848 33.2102 58.419 33.821 58.1406 34.5767C57.8622 35.3324 57.723 36.1477 57.723 37.0227C57.723 37.8977 57.8622 38.7102 58.1406 39.4602C58.419 40.2102 58.848 40.8153 59.4276 41.2756C60.0071 41.7358 60.7457 41.9659 61.6435 41.9659ZM73.1662 43.5L69.1776 30.4091H71.2912L74.1207 40.4318H74.2571L77.0526 30.4091H79.2003L81.9616 40.3977H82.098L84.9276 30.4091H87.0412L83.0526 43.5H81.0753L78.2116 33.4432H78.0071L75.1435 43.5H73.1662ZM96.4503 43.5V30.4091H98.3935V32.4545H98.5639C98.8366 31.7557 99.277 31.2131 99.8849 30.8267C100.493 30.4347 101.223 30.2386 102.075 30.2386C102.939 30.2386 103.658 30.4347 104.232 30.8267C104.811 31.2131 105.263 31.7557 105.587 32.4545H105.723C106.058 31.7784 106.561 31.2415 107.232 30.8438C107.902 30.4403 108.706 30.2386 109.643 30.2386C110.814 30.2386 111.771 30.6051 112.516 31.3381C113.26 32.0653 113.632 33.1989 113.632 34.7386V43.5H111.621V34.7386C111.621 33.7727 111.357 33.0824 110.828 32.6676C110.3 32.2528 109.678 32.0455 108.962 32.0455C108.041 32.0455 107.328 32.3239 106.822 32.8807C106.317 33.4318 106.064 34.1307 106.064 34.9773V43.5H104.018V34.5341C104.018 33.7898 103.777 33.1903 103.294 32.7358C102.811 32.2756 102.189 32.0455 101.428 32.0455C100.905 32.0455 100.416 32.1847 99.9616 32.4631C99.5128 32.7415 99.1491 33.1278 98.8707 33.6222C98.598 34.1108 98.4616 34.6761 98.4616 35.3182V43.5H96.4503ZM118.136 48.4091C117.795 48.4091 117.491 48.3807 117.224 48.3239C116.957 48.2727 116.773 48.2216 116.67 48.1705L117.182 46.3977C117.67 46.5227 118.102 46.5682 118.477 46.5341C118.852 46.5 119.185 46.3324 119.474 46.0312C119.77 45.7358 120.04 45.2557 120.284 44.5909L120.659 43.5682L115.818 30.4091H118L121.614 40.8409H121.75L125.364 30.4091H127.545L121.989 45.4091C121.739 46.0852 121.429 46.6449 121.06 47.0881C120.69 47.5369 120.261 47.8693 119.773 48.0852C119.29 48.3011 118.744 48.4091 118.136 48.4091ZM139.916 43.5L135.928 30.4091H138.041L140.871 40.4318H141.007L143.803 30.4091H145.95L148.712 40.3977H148.848L151.678 30.4091H153.791L149.803 43.5H147.825L144.962 33.4432H144.757L141.893 43.5H139.916ZM161.323 43.7727C160.141 43.7727 159.104 43.4915 158.212 42.929C157.326 42.3665 156.633 41.5795 156.133 40.5682C155.638 39.5568 155.391 38.375 155.391 37.0227C155.391 35.6591 155.638 34.4687 156.133 33.4517C156.633 32.4347 157.326 31.6449 158.212 31.0824C159.104 30.5199 160.141 30.2386 161.323 30.2386C162.505 30.2386 163.539 30.5199 164.425 31.0824C165.317 31.6449 166.011 32.4347 166.505 33.4517C167.005 34.4687 167.255 35.6591 167.255 37.0227C167.255 38.375 167.005 39.5568 166.505 40.5682C166.011 41.5795 165.317 42.3665 164.425 42.929C163.539 43.4915 162.505 43.7727 161.323 43.7727ZM161.323 41.9659C162.221 41.9659 162.96 41.7358 163.539 41.2756C164.119 40.8153 164.548 40.2102 164.826 39.4602C165.104 38.7102 165.244 37.8977 165.244 37.0227C165.244 36.1477 165.104 35.3324 164.826 34.5767C164.548 33.821 164.119 33.2102 163.539 32.7443C162.96 32.2784 162.221 32.0455 161.323 32.0455C160.425 32.0455 159.687 32.2784 159.107 32.7443C158.528 33.2102 158.099 33.821 157.82 34.5767C157.542 35.3324 157.403 36.1477 157.403 37.0227C157.403 37.8977 157.542 38.7102 157.82 39.4602C158.099 40.2102 158.528 40.8153 159.107 41.2756C159.687 41.7358 160.425 41.9659 161.323 41.9659ZM170.325 43.5V30.4091H172.268V32.3864H172.405C172.643 31.7386 173.075 31.2131 173.7 30.8097C174.325 30.4062 175.03 30.2045 175.814 30.2045C175.962 30.2045 176.146 30.2074 176.368 30.2131C176.589 30.2187 176.757 30.2273 176.871 30.2386V32.2841C176.803 32.267 176.646 32.2415 176.402 32.2074C176.163 32.1676 175.911 32.1477 175.643 32.1477C175.007 32.1477 174.439 32.2812 173.939 32.5483C173.445 32.8097 173.053 33.1733 172.763 33.6392C172.479 34.0994 172.337 34.625 172.337 35.2159V43.5H170.325ZM183.8 43.7727C182.709 43.7727 181.746 43.4972 180.911 42.946C180.075 42.3892 179.422 41.6051 178.95 40.5938C178.479 39.5767 178.243 38.375 178.243 36.9886C178.243 35.6136 178.479 34.4205 178.95 33.4091C179.422 32.3977 180.078 31.6165 180.919 31.0653C181.76 30.5142 182.732 30.2386 183.834 30.2386C184.686 30.2386 185.359 30.3807 185.854 30.6648C186.354 30.9432 186.734 31.2614 186.996 31.6193C187.263 31.9716 187.47 32.2614 187.618 32.4886H187.788V26.0455H189.8V43.5H187.857V41.4886H187.618C187.47 41.7273 187.26 42.0284 186.987 42.392C186.714 42.75 186.325 43.071 185.82 43.3551C185.314 43.6335 184.641 43.7727 183.8 43.7727ZM184.072 41.9659C184.879 41.9659 185.561 41.7557 186.118 41.3352C186.675 40.9091 187.098 40.321 187.388 39.571C187.678 38.8153 187.822 37.9432 187.822 36.9545C187.822 35.9773 187.68 35.1222 187.396 34.3892C187.112 33.6506 186.692 33.0767 186.135 32.6676C185.578 32.2528 184.891 32.0455 184.072 32.0455C183.22 32.0455 182.51 32.2642 181.942 32.7017C181.379 33.1335 180.956 33.7216 180.672 34.4659C180.393 35.2045 180.254 36.0341 180.254 36.9545C180.254 37.8864 180.396 38.733 180.68 39.4943C180.97 40.25 181.396 40.8523 181.959 41.3011C182.527 41.7443 183.232 41.9659 184.072 41.9659ZM203.036 33.3409L201.229 33.8523C201.115 33.5511 200.947 33.2585 200.726 32.9744C200.51 32.6847 200.214 32.446 199.839 32.2585C199.464 32.071 198.984 31.9773 198.399 31.9773C197.598 31.9773 196.93 32.1619 196.396 32.5312C195.868 32.8949 195.604 33.358 195.604 33.9205C195.604 34.4205 195.786 34.8153 196.149 35.1051C196.513 35.3949 197.081 35.6364 197.854 35.8295L199.797 36.3068C200.967 36.5909 201.839 37.0256 202.413 37.6108C202.987 38.1903 203.274 38.9375 203.274 39.8523C203.274 40.6023 203.058 41.2727 202.626 41.8636C202.2 42.4545 201.604 42.9205 200.837 43.2614C200.07 43.6023 199.178 43.7727 198.161 43.7727C196.825 43.7727 195.72 43.483 194.845 42.9034C193.97 42.3239 193.416 41.4773 193.183 40.3636L195.092 39.8864C195.274 40.5909 195.618 41.1193 196.124 41.4716C196.635 41.8239 197.303 42 198.126 42C199.064 42 199.808 41.8011 200.359 41.4034C200.916 41 201.195 40.517 201.195 39.9545C201.195 39.5 201.036 39.1193 200.717 38.8125C200.399 38.5 199.911 38.267 199.251 38.1136L197.07 37.6023C195.871 37.3182 194.99 36.8778 194.428 36.2812C193.871 35.679 193.592 34.9261 193.592 34.0227C193.592 33.2841 193.8 32.6307 194.214 32.0625C194.635 31.4943 195.206 31.0483 195.928 30.7244C196.655 30.4006 197.479 30.2386 198.399 30.2386C199.695 30.2386 200.712 30.5227 201.45 31.0909C202.195 31.6591 202.723 32.4091 203.036 33.3409Z" fill="#3C3C3C"/>
<path d="M222.3 42.3C222.117 42.1167 222.021 41.8833 222.012 41.6C222.004 41.3167 222.092 41.0833 222.275 40.9L227.175 36H216C215.717 36 215.479 35.904 215.287 35.712C215.096 35.5207 215 35.2833 215 35C215 34.7167 215.096 34.479 215.287 34.287C215.479 34.0957 215.717 34 216 34H227.175L222.275 29.1C222.092 28.9167 222.004 28.6833 222.012 28.4C222.021 28.1167 222.117 27.8833 222.3 27.7C222.483 27.5167 222.717 27.425 223 27.425C223.283 27.425 223.517 27.5167 223.7 27.7L230.3 34.3C230.4 34.3833 230.471 34.4873 230.513 34.612C230.554 34.7373 230.575 34.8667 230.575 35C230.575 35.1333 230.554 35.2583 230.513 35.375C230.471 35.4917 230.4 35.6 230.3 35.7L223.7 42.3C223.517 42.4833 223.283 42.575 223 42.575C222.717 42.575 222.483 42.4833 222.3 42.3Z" fill="#3C3C3C"/>
<rect x="0.5" y="0.5" width="259" height="69" rx="34.5" stroke="#3C3C3C"/>
</svg>
