<svg width="40" height="34" viewBox="0 0 40 34" fill="none" xmlns="http://www.w3.org/2000/svg">
<path d="M22.75 2.47043C22.75 0.548185 20.3547 -0.329066 19.1131 1.13668L13.4949 7.77793C13.2367 8.08261 12.9153 8.32739 12.5529 8.49527C12.1905 8.66315 11.796 8.75009 11.3966 8.75006H6.25C4.79131 8.75006 3.39236 9.32952 2.36091 10.361C1.32946 11.3924 0.75 12.7914 0.75 14.2501V19.7501C0.75 21.2087 1.32946 22.6077 2.36091 23.6391C3.39236 24.6706 4.79131 25.2501 6.25 25.2501H11.3966C11.7961 25.2502 12.1907 25.3373 12.5531 25.5055C12.9154 25.6736 13.2368 25.9186 13.4949 26.2236L19.1131 32.8634C20.3534 34.3292 22.75 33.4519 22.75 31.5297V2.47043ZM27.4704 7.61706C27.6192 7.5147 27.7868 7.44268 27.9635 7.40512C28.1402 7.36755 28.3226 7.36517 28.5002 7.39811C28.6778 7.43106 28.8472 7.49868 28.9987 7.59712C29.1502 7.69556 29.2808 7.82288 29.383 7.97181C31.3974 10.9006 32.4603 13.9173 32.4603 17.0001C32.4603 20.0828 31.3974 23.0996 29.383 26.0297C29.2816 26.1805 29.1512 26.3097 28.9996 26.4098C28.8479 26.5099 28.6779 26.5789 28.4993 26.6129C28.3208 26.6469 28.1373 26.6452 27.9595 26.6078C27.7816 26.5704 27.6129 26.4982 27.4632 26.3952C27.3134 26.2923 27.1855 26.1607 27.087 26.008C26.9884 25.8553 26.9211 25.6846 26.8889 25.5057C26.8567 25.3269 26.8603 25.1434 26.8994 24.9659C26.9386 24.7885 27.0125 24.6205 27.117 24.4718C28.8839 21.9006 29.7116 19.4173 29.7116 17.0001C29.7116 14.5828 28.8839 12.0996 27.117 9.52968C26.9107 9.22916 26.8322 8.85901 26.8987 8.50062C26.9653 8.14223 27.1714 7.82492 27.4718 7.61843L27.4704 7.61706ZM33.3237 2.25456C33.193 2.12997 33.039 2.03235 32.8706 1.96727C32.7021 1.90219 32.5225 1.87093 32.3419 1.87527C32.1614 1.87961 31.9835 1.91947 31.8183 1.99257C31.6532 2.06567 31.5041 2.17058 31.3795 2.30131C31.2549 2.43204 31.1573 2.58603 31.0922 2.75449C31.0271 2.92295 30.9959 3.10258 31.0002 3.28312C31.0045 3.46366 31.0444 3.64157 31.1175 3.80671C31.1906 3.97185 31.2955 4.12097 31.4262 4.24556C34.7084 7.37093 36.4147 12.1367 36.4147 17.0001C36.4147 21.8648 34.7084 26.6292 31.4262 29.7546C31.2955 29.8791 31.1906 30.0283 31.1175 30.1934C31.0444 30.3585 31.0045 30.5365 31.0002 30.717C30.9959 30.8975 31.0271 31.0772 31.0922 31.2456C31.1573 31.4141 31.2549 31.5681 31.3795 31.6988C31.5041 31.8295 31.6532 31.9344 31.8183 32.0075C31.9835 32.0806 32.1614 32.1205 32.3419 32.1248C32.5225 32.1292 32.7021 32.0979 32.8706 32.0328C33.039 31.9678 33.193 31.8701 33.3237 31.7456C37.2604 27.9959 39.1634 22.4492 39.1634 17.0001C39.1634 11.5509 37.2604 6.00418 33.3237 2.25456Z" fill="black"/>
</svg>
